<?xml version="1.0" encoding="UTF-8" standalone="no"?>
<!-- Created with Inkscape (http://www.inkscape.org/) -->

<svg
   xmlns:dc="http://purl.org/dc/elements/1.1/"
   xmlns:cc="http://creativecommons.org/ns#"
   xmlns:rdf="http://www.w3.org/1999/02/22-rdf-syntax-ns#"
   xmlns:svg="http://www.w3.org/2000/svg"
   xmlns="http://www.w3.org/2000/svg"
   xmlns:sodipodi="http://sodipodi.sourceforge.net/DTD/sodipodi-0.dtd"
   xmlns:inkscape="http://www.inkscape.org/namespaces/inkscape"
   width="97.500046mm"
   height="46.574764mm"
   viewBox="0 0 345.4726 165.02869"
   id="svg3375"
   version="1.1"
   inkscape:version="0.91 r"
   sodipodi:docname="nossa_mater.svg">
  <defs
     id="defs3377" />
  <sodipodi:namedview
     id="base"
     pagecolor="#ffffff"
     bordercolor="#666666"
     borderopacity="1.0"
     inkscape:pageopacity="0.0"
     inkscape:pageshadow="2"
     inkscape:zoom="2.8"
     inkscape:cx="241.38171"
     inkscape:cy="97.344493"
     inkscape:document-units="px"
     inkscape:current-layer="layer1"
     showgrid="false"
     fit-margin-top="5"
     fit-margin-left="5"
     fit-margin-bottom="5"
     fit-margin-right="5"
     inkscape:window-width="2560"
     inkscape:window-height="1003"
     inkscape:window-x="0"
     inkscape:window-y="0"
     inkscape:window-maximized="1" />
  <metadata
     id="metadata3380">
    <rdf:RDF>
      <cc:Work
         rdf:about="">
        <dc:format>image/svg+xml</dc:format>
        <dc:type
           rdf:resource="http://purl.org/dc/dcmitype/StillImage" />
        <dc:title></dc:title>
      </cc:Work>
    </rdf:RDF>
  </metadata>
  <g
     inkscape:label="Layer 1"
     inkscape:groupmode="layer"
     id="layer1"
     transform="translate(-190.12089,-389.84786)">
    <g
       transform="matrix(0.08999696,0,0,0.08999696,-9.1452429,-53.760023)"
       style="clip-rule:evenodd;fill-rule:evenodd;image-rendering:optimizeQuality;shape-rendering:geometricPrecision;text-rendering:geometricPrecision"
       id="g3355">
      <path
         class="fil1"
         d="m 2435,6565 197,0 0,-224 -13,-157 5,-1 104,267 135,0 102,-267 7,1 -12,157 -1,224 198,0 0,-748 c -11,-9 -21,-19 -31,-30 l -60,0 c -18,13 -37,24 -56,34 -23,12 -46,22 -71,30 -3,1 -5,2 -8,2 l -136,314 -164,-380 -39,0 -11,23 c -10,20 -21,34 -33,41 -12,7 -26,11 -43,11 -20,0 -36,-4 -49,-13 -8,-6 -15,-13 -21,-21 l 0,737 z m 1227,-778 -179,0 -271,778 211,0 48,-156 208,0 51,156 211,0 -278,-778 z m -147,447 57,-227 5,0 54,227 -116,0 z m 959,-262 0,-125 c -9,-4 -17,-8 -25,-13 -19,-12 -34,-27 -46,-45 -1,-1 -2,-3 -2,-4 l -102,0 c -26,12 -52,22 -79,32 -44,16 -89,28 -134,37 -45,9 -88,14 -128,14 -29,0 -56,-3 -81,-8 -5,-1 -9,-2 -14,-3 l 0,115 207,0 0,592 199,0 0,-592 207,0 z m 276,-1 343,0 0,-120 c -1,-1 -3,-1 -4,-2 -22,-10 -42,-23 -60,-41 -6,-7 -12,-13 -17,-21 l -76,0 c -25,11 -50,21 -77,31 -44,16 -89,28 -134,37 -45,9 -88,14 -128,14 -16,0 -31,-1 -45,-2 l 0,699 542,0 0,-186 -343,0 0,-116 315,0 0,-170 -315,0 0,-121 z m 861,593 245,0 -212,-267 c 94,-30 153,-111 153,-255 -3,-119 -57,-192 -138,-228 -17,12 -34,22 -52,31 -27,13 -54,20 -81,20 -33,0 -60,-11 -81,-32 -13,-12 -25,-28 -36,-47 l -66,0 c -17,14 -35,26 -54,37 -20,12 -42,21 -64,29 -9,3 -18,5 -27,7 l 0,705 199,0 0,-247 35,0 180,247 z m -215,-416 0,-178 115,0 c 124,0 124,178 0,178 l -115,0 z"
         id="path12"
         inkscape:connector-curvature="0"
         style="fill:#a8cf45" />
      <path
         class="fil0"
         d="m 2411,5683 c 0,-33 2,-70 6,-113 4,-43 9,-86 15,-130 6,-44 13,-87 20,-127 7,-41 15,-76 21,-105 6,-23 16,-42 32,-57 15,-15 37,-23 63,-23 27,0 45,8 55,24 10,16 15,38 15,65 0,7 -1,17 -2,30 -2,12 -4,26 -6,41 -2,15 -5,31 -7,46 -3,16 -5,31 -7,44 -2,14 -4,25 -6,36 -2,10 -2,17 -2,20 l 15,0 c 3,-5 8,-14 14,-26 7,-12 14,-26 22,-42 9,-16 17,-33 27,-50 10,-17 19,-34 27,-50 8,-16 16,-30 23,-43 7,-12 12,-21 16,-27 16,-27 34,-45 54,-55 20,-10 43,-15 67,-15 25,0 44,11 59,31 15,21 22,49 22,86 0,6 -1,15 -3,27 -2,13 -5,28 -9,46 -3,18 -7,37 -11,59 -4,21 -8,43 -11,65 -4,22 -6,44 -9,66 -2,22 -3,42 -3,60 0,31 4,55 11,75 8,20 20,30 36,30 8,0 16,-2 25,-7 10,-4 20,-10 31,-17 11,-7 22,-15 34,-25 4,-4 9,-7 13,-11 -6,-32 -10,-65 -10,-98 0,-54 8,-105 24,-152 16,-47 40,-88 70,-123 30,-35 67,-62 111,-82 44,-20 93,-30 148,-30 47,0 91,7 131,22 41,15 79,34 115,58 36,24 69,52 100,84 31,32 60,64 86,98 l -9,66 4,-4 c 12,-13 23,-26 34,-40 10,-13 22,-29 36,-47 14,-18 31,-41 50,-67 20,-26 45,-59 77,-99 6,-9 14,-18 21,-26 8,-8 17,-16 26,-22 10,-7 20,-12 32,-16 12,-4 24,-6 39,-6 23,0 42,3 54,8 13,5 22,12 28,19 6,7 9,15 10,23 1,8 2,15 2,21 0,12 -5,25 -14,39 -9,14 -20,28 -31,41 -11,13 -22,25 -32,37 -10,11 -16,19 -17,25 0,15 1,29 3,42 2,13 5,25 9,37 4,12 8,25 11,39 4,13 8,29 12,47 4,18 7,38 9,61 2,23 3,50 3,82 18,-12 37,-22 57,-32 20,-10 42,-20 64,-30 3,-2 7,-3 10,-5 6,-5 11,-10 17,-14 8,-6 14,-11 18,-14 28,-24 50,-43 67,-59 17,-16 32,-30 44,-43 12,-13 23,-26 34,-40 10,-13 22,-29 36,-47 14,-18 31,-41 50,-67 20,-26 45,-59 77,-99 6,-9 14,-18 21,-26 8,-8 17,-16 26,-22 10,-7 20,-12 32,-16 12,-4 24,-6 39,-6 23,0 42,3 54,8 13,5 22,12 28,19 6,7 9,15 10,23 1,8 2,15 2,21 0,12 -5,25 -14,39 -9,14 -20,28 -31,41 -11,13 -22,25 -32,37 -10,11 -16,19 -17,25 0,15 1,29 3,42 2,13 5,25 9,37 4,12 8,25 11,39 4,13 8,29 12,47 4,18 7,38 9,61 2,23 3,50 3,82 18,-12 37,-22 57,-32 20,-10 42,-20 64,-30 8,-4 16,-8 24,-12 3,-19 6,-39 12,-58 10,-39 25,-77 43,-114 18,-37 40,-72 65,-105 25,-33 52,-62 82,-86 30,-25 61,-44 94,-59 33,-15 66,-22 100,-22 11,0 20,2 26,7 6,4 12,9 16,15 4,6 8,11 12,17 4,5 9,9 15,12 6,2 12,4 18,5 6,1 12,1 19,1 5,0 11,0 16,0 6,0 11,-1 17,-1 8,0 14,1 21,2 7,2 12,5 17,10 5,5 9,12 11,21 3,9 4,21 4,36 0,24 -3,50 -7,79 -5,29 -10,58 -16,89 -6,30 -11,61 -16,91 -5,31 -7,59 -7,86 0,23 2,41 6,54 4,13 13,20 27,20 10,0 21,-3 33,-8 11,-5 23,-12 34,-20 12,-8 23,-18 35,-28 12,-11 23,-22 33,-33 24,-26 48,-57 73,-90 l 36,164 c -11,16 -26,34 -46,55 -19,21 -40,41 -64,61 -24,19 -49,36 -76,49 -27,13 -54,20 -81,20 -33,0 -60,-11 -81,-32 -22,-21 -41,-51 -56,-91 -12,14 -26,28 -44,42 -17,14 -36,27 -57,39 -20,12 -42,21 -64,29 -22,7 -44,11 -67,11 -24,0 -47,-5 -69,-14 -22,-10 -42,-23 -60,-41 -14,-14 -25,-31 -34,-50 -3,2 -6,3 -10,5 -40,21 -82,39 -126,55 -44,16 -89,28 -134,37 -45,9 -88,14 -128,14 -29,0 -56,-3 -81,-8 -25,-5 -47,-14 -66,-25 -19,-12 -34,-27 -46,-45 -9,-14 -15,-30 -19,-48 -12,7 -25,14 -39,21 -40,21 -82,39 -126,55 -44,16 -89,28 -134,37 -45,9 -88,14 -128,14 -29,0 -56,-3 -81,-8 -25,-5 -47,-14 -66,-25 -19,-12 -34,-27 -46,-45 -12,-19 -19,-41 -21,-68 -7,2 -14,3 -20,3 -7,1 -13,1 -19,1 -8,0 -15,0 -22,-1 -7,-1 -13,-2 -18,-6 -5,-3 -9,-8 -12,-15 -3,-7 -5,-17 -5,-31 0,-12 3,-23 9,-33 6,-10 13,-19 21,-27 8,-8 16,-15 24,-21 8,-6 14,-11 18,-14 28,-24 50,-43 67,-59 7,-7 14,-13 20,-19 -11,-12 -24,-26 -39,-39 -23,-21 -47,-41 -72,-61 -25,-20 -50,-38 -75,-56 -24,-18 -46,-32 -64,-44 l -6,8 c 14,29 25,59 32,91 7,32 11,62 11,91 0,29 -3,59 -10,88 -7,30 -16,58 -28,86 -12,28 -27,53 -44,77 -17,24 -37,45 -60,63 -22,18 -47,32 -74,42 -26,10 -55,16 -85,16 -43,0 -80,-10 -111,-29 -31,-19 -56,-44 -76,-74 l -1,-1 c -10,7 -20,14 -29,22 -21,15 -43,29 -65,41 -23,12 -46,22 -71,30 -25,8 -50,11 -78,11 -27,0 -50,-20 -68,-59 -18,-39 -28,-96 -28,-172 0,-30 2,-62 6,-96 4,-34 9,-71 15,-110 l -12,0 -193,384 c -10,20 -21,34 -33,41 -12,7 -26,11 -43,11 -20,0 -36,-4 -49,-13 -12,-9 -22,-20 -29,-35 -7,-15 -11,-31 -13,-49 -2,-18 -3,-38 -3,-57 z m 2751,-85 c 0,12 1,24 3,36 2,12 5,22 9,31 5,9 10,16 18,22 7,6 17,8 28,8 18,0 35,-8 49,-23 15,-16 28,-35 39,-57 11,-22 19,-45 26,-69 7,-24 11,-43 13,-59 l 45,-217 c -20,0 -40,5 -59,15 -19,10 -37,24 -54,41 -17,17 -33,37 -47,59 -14,22 -27,45 -37,70 -10,24 -18,49 -24,73 -6,25 -8,48 -8,70 z m -710,50 0,1 c 6,0 12,4 19,11 7,7 15,15 25,24 9,9 20,17 33,24 12,8 26,11 42,11 19,0 35,-3 48,-10 13,-6 22,-15 30,-25 7,-11 12,-23 15,-37 3,-14 5,-29 5,-44 0,-13 -1,-27 -3,-41 -2,-14 -4,-27 -7,-40 -3,-12 -6,-24 -9,-35 -3,-11 -6,-21 -9,-29 l -189,189 z m -640,1 c 6,0 13,4 20,11 7,7 15,15 25,24 9,9 20,17 33,24 12,8 26,11 42,11 19,0 35,-3 48,-10 13,-6 22,-15 30,-25 7,-11 12,-23 15,-37 3,-14 5,-29 5,-44 0,-13 -1,-27 -3,-41 -2,-14 -4,-27 -7,-40 -3,-12 -6,-24 -9,-35 -3,-11 -6,-21 -9,-29 l -190,189 z m -491,47 c 17,0 33,-8 49,-25 16,-17 30,-38 41,-64 12,-26 21,-54 29,-86 7,-31 11,-61 11,-90 0,-23 -2,-44 -5,-63 -4,-19 -9,-36 -16,-50 -7,-14 -16,-26 -26,-34 -11,-8 -24,-13 -39,-13 -20,0 -40,9 -58,26 -18,17 -34,39 -48,66 -14,27 -25,56 -33,89 -8,33 -12,64 -12,94 0,21 2,40 6,58 4,18 10,34 18,48 9,14 20,24 33,33 14,8 30,12 50,12 z"
         id="path14"
         inkscape:connector-curvature="0"
         style="fill:#354b9c" />
    </g>
  </g>
</svg>
